<?xml version="1.0" encoding="utf-8"?>
<!-- Generator: Adobe Illustrator 16.0.0, SVG Export Plug-In . SVG Version: 6.00 Build 0)  -->
<!DOCTYPE svg PUBLIC "-//W3C//DTD SVG 1.1//EN" "http://www.w3.org/Graphics/SVG/1.1/DTD/svg11.dtd">
<svg version="1.1" id="Capa_1" xmlns="http://www.w3.org/2000/svg" xmlns:xlink="http://www.w3.org/1999/xlink" x="0px" y="0px"
	 width="100%" height="100%" viewBox="0 0 810 298" enable-background="new 0 0 810 298" xml:space="preserve">
<path d="M46.848,103.937h6.586v84.46h52.044v5.938h-58.63V103.937z"/>
<path d="M359.227,155.337c3.402,3.874,5.102,8.908,5.102,15.109c0,7.663-2.799,13.559-8.394,17.691
	c-5.599,4.133-13.903,6.198-24.925,6.198h-40.29v-90.398h37.707c9.815,0,17.454,2.004,22.921,6.006
	c5.47,4.002,8.201,9.706,8.201,17.11c0,5.166-1.354,9.515-4.065,13.044c-2.714,3.533-6.393,6.07-11.043,7.617
	C350.896,148.919,355.824,151.459,359.227,155.337z M297.304,109.62v36.032h30.864c7.922,0,14.013-1.529,18.273-4.587
	c4.26-3.054,6.396-7.556,6.396-13.495c0-5.854-2.136-10.309-6.396-13.367c-4.261-3.055-10.352-4.583-18.273-4.583H297.304z
	 M350.964,184.068c4.52-3.054,6.776-7.769,6.776-14.141c0-6.368-2.257-11.061-6.776-14.077c-4.522-3.012-11.175-4.52-19.954-4.52
	h-33.706v37.32h33.706C339.789,188.652,346.441,187.126,350.964,184.068z"/>
<path d="M461.102,188.396v5.938h-62.373v-90.398h60.436v5.938h-53.848v35.646h48.168v5.811h-48.168v37.065H461.102z"/>
<path d="M496.023,103.937h6.584v84.46h52.043v5.938h-58.627V103.937z"/>
<path d="M638.51,168.896h-52.429l-11.494,25.439h-7.103l41.585-90.398h6.584l41.584,90.398h-7.102L638.51,168.896z M636.059,163.344
	l-23.761-52.174l-23.634,52.174H636.059z"/>
<path d="M736.397,194.335l-21.565-30.218c-3.189,0.433-6.112,0.646-8.78,0.646h-25.829v29.572h-6.588v-90.398h32.417
	c11.363,0,20.271,2.692,26.728,8.071c6.46,5.381,9.688,12.853,9.688,22.406c0,7.148-1.831,13.154-5.488,18.014
	c-3.661,4.867-8.891,8.291-15.69,10.271l22.601,31.637H736.397z M706.052,158.952c9.639,0,17-2.132,22.08-6.393
	c5.08-4.264,7.62-10.309,7.62-18.146c0-7.83-2.54-13.882-7.62-18.142c-5.08-4.264-12.441-6.396-22.08-6.396h-25.829v49.077H706.052z
	"/>
<g>
	<g>
		<path d="M123.546,109.748c-6.194,17.439,36.211,28.973,54.83,33.134c-21.327-4.094-75.009-12.494-66.147,8.922
			c11.018,26.624,74.607-7.181,74.607-7.181S131.449,87.504,123.546,109.748z"/>
		<path d="M250.122,109.748c6.193,17.439-36.21,28.973-54.827,33.134c21.326-4.094,75.013-12.494,66.147,8.922
			c-11.019,26.624-74.606-7.181-74.606-7.181S242.222,87.504,250.122,109.748z"/>
	</g>
	<path d="M190.621,185.849c-0.167-0.333,0-57.722,0-57.722c0-4.069-0.777-6.552-3.784-6.552c-3.075,0-3.792,2.483-3.792,6.552
		c0,0.075,0.005,0.149,0.007,0.224c0.011,3.863,0.161,57.179,0,57.499c-0.17,0.337,3.785,7.815,3.785,7.815
		S190.789,186.187,190.621,185.849z"/>
</g>
<circle cx="186.835" cy="112.49" r="3.71"/>
</svg>
